<?xml version="1.0" standalone="no"?>
<svg xmlns="http://www.w3.org/2000/svg" viewBox="0 0 258.854 36" width="258.854" height="36"><g fill="#043aff" color="#043aff" transform="translate(0 6) scale(0.24)"><g transform="translate(6.181, 0.208)"><svg width="89.9" height="100.0" x="-6.181" y="-0.208" viewBox="-6.181 -0.208 89.9 100"><path d="M41.695-0.208c3.905,0,7.07,2.972,7.07,6.645c0,3.669-3.165,6.641-7.07,6.641c-3.905,0-7.07-2.972-7.07-6.641  C34.625,2.764,37.79-0.208,41.695-0.208z"></path><path d="M29.587,15.196c0,0,51.915-1.771,54.08,6.105c1.213,4.381-18.675,3.941-31.122,3.811l-0.244,20.001l-6.605,30.925  c0,0-13.904,27.052-20.698,23.053c0,0-5.779-3.551,9.715-25.91l2.283-14.92c0,0-10.731,14.92-15.872,12.447  c0,0-10.291-3.621,7.621-25.339l0.252-18.541c0,0-22.746,20.765-26.037,19.049c0,0-11.999-0.89,26.415-30.453"></path><path d="M18.761,58.388c0,0-3.047,6.574-1.079,10.259c0,0-10.628,0.188-8.786-6.26C8.896,62.387,9.557,58.963,18.761,58.388z"></path><path d="M2.582,81.629c4.834,0,8.763,4.07,8.763,9.078c0,5.022-3.928,9.085-8.763,9.085c-4.842,0-8.763-4.062-8.763-9.085  C-6.181,85.699-2.26,81.629,2.582,81.629z"></path></svg></g></g><path fill="#000" fill-rule="nonzero" d="M8.18 7.83L8.21 10.72Q7.65 10.66 6.76 10.66L6.76 10.66L3.21 10.66L3.21 17.46L0 17.46L0 1.79Q0.32 1.82 0.73 1.83L0.73 1.83L1.59 1.85Q2.48 1.88 3.45 1.88L3.45 1.88Q6.33 1.88 8.95 1.78L8.95 1.78Q8.82 2.81 8.82 4.54L8.82 4.54Q8.82 4.72 8.85 4.82L8.85 4.82L8.82 4.85Q8.20 4.68 7.09 4.68L7.09 4.68L3.21 4.68L3.21 7.90L6.63 7.90Q7.92 7.90 8.18 7.83L8.18 7.83ZM10.79 11.40L10.79 11.40Q10.79 10.11 11.23 8.94Q11.67 7.76 12.49 6.88L12.49 6.88Q14.29 4.98 17.14 4.98L17.14 4.98Q19.99 4.98 21.67 6.77L21.67 6.77Q23.27 8.48 23.27 11.21L23.27 11.21Q23.27 13.95 21.62 15.74L21.62 15.74Q19.88 17.64 16.99 17.64L16.99 17.64Q14.02 17.64 12.33 15.77L12.33 15.77Q10.79 14.07 10.79 11.40ZM13.64 11.33L13.64 11.33Q13.64 12.07 13.89 12.76Q14.13 13.45 14.59 13.95L14.59 13.95Q15.56 15.01 17.14 15.01L17.14 15.01Q18.61 15.01 19.45 13.97L19.45 13.97Q20.27 12.96 20.27 11.34L20.27 11.34Q20.27 9.70 19.43 8.70L19.43 8.70Q18.53 7.62 16.96 7.62L16.96 7.62Q15.36 7.62 14.46 8.77L14.46 8.77Q13.64 9.82 13.64 11.33ZM24.82 11.40L24.82 11.40Q24.82 10.11 25.26 8.94Q25.70 7.76 26.52 6.88L26.52 6.88Q28.31 4.98 31.17 4.98L31.17 4.98Q34.02 4.98 35.70 6.77L35.70 6.77Q37.30 8.48 37.30 11.21L37.30 11.21Q37.30 13.95 35.65 15.74L35.65 15.74Q33.90 17.64 31.02 17.64L31.02 17.64Q28.04 17.64 26.36 15.77L26.36 15.77Q24.82 14.07 24.82 11.40ZM27.67 11.33L27.67 11.33Q27.67 12.07 27.91 12.76Q28.16 13.45 28.62 13.95L28.62 13.95Q29.59 15.01 31.17 15.01L31.17 15.01Q32.64 15.01 33.48 13.97L33.48 13.97Q34.30 12.96 34.30 11.34L34.30 11.34Q34.30 9.70 33.46 8.70L33.46 8.70Q32.55 7.62 30.98 7.62L30.98 7.62Q29.39 7.62 28.49 8.77L28.49 8.77Q27.67 9.82 27.67 11.33ZM45.18 14.88L45.18 14.88Q46.69 14.88 47.25 14.10L47.25 14.10L47.34 14.10L47.38 16.82Q46.80 17.39 45.25 17.58L45.25 17.58Q44.82 17.64 44.20 17.64Q43.57 17.64 42.84 17.40Q42.11 17.17 41.59 16.64L41.59 16.64Q40.52 15.55 40.52 13.23L40.52 13.23L40.52 7.91L38.75 7.91Q38.74 7.57 38.74 7.22L38.74 7.22L38.74 5.41Q38.74 5.21 38.75 5.21L38.75 5.21L40.52 5.21L40.52 1.88L43.39 1.88L43.39 5.21L46.62 5.21L46.62 7.91L43.39 7.91L43.39 12.69Q43.39 14.53 44.41 14.79L44.41 14.79Q44.74 14.88 45.18 14.88ZM52.69 0.02L52.69 5.66Q54 4.98 55.37 4.98Q56.74 4.98 57.73 5.41Q58.72 5.84 59.47 6.63L59.47 6.63Q61.10 8.40 61.10 11.11L61.10 11.11Q61.10 14.07 59.33 15.89L59.33 15.89Q57.63 17.64 55.10 17.64L55.10 17.64Q52.88 17.64 51.43 16.48L51.43 16.48Q49.82 15.16 49.82 12.86L49.82 12.86L49.82 0.02L52.69 0.02ZM52.69 8.63L52.69 12.82Q52.69 14.88 55.25 14.88L55.25 14.88Q56.51 14.88 57.36 13.78L57.36 13.78Q58.23 12.66 58.23 10.98L58.23 10.98Q58.23 9.29 57.32 8.44L57.32 8.44Q56.50 7.68 55.11 7.68L55.11 7.68Q54.28 7.68 53.27 8.24L53.27 8.24Q52.96 8.41 52.69 8.63L52.69 8.63ZM71.75 16.73L71.75 16.73Q70.09 17.64 68.74 17.64Q67.39 17.64 66.43 17.38Q65.47 17.13 64.80 16.64L64.80 16.64Q63.45 15.64 63.45 13.76L63.45 13.76Q63.45 12.07 65.11 10.95L65.11 10.95Q66.91 9.73 70.01 9.73L70.01 9.73L70.48 9.74Q70.62 9.75 70.79 9.76Q70.97 9.76 71.11 9.79L71.11 9.79Q71.02 7.91 69.49 7.59L69.49 7.59Q68.99 7.49 68.42 7.49Q67.85 7.49 67.31 7.59Q66.76 7.69 66.25 7.85L66.25 7.85Q65.11 8.21 64.62 8.68L64.62 8.68L64.58 8.66L64.23 6.07Q66.30 4.98 68.77 4.98L68.77 4.98Q72.59 4.98 73.65 7.73L73.65 7.73Q73.99 8.61 73.99 9.71L73.99 9.71L73.99 13.96Q73.99 15.32 74.95 15.81L74.95 15.81L72.83 17.75Q72.16 17.40 71.75 16.73ZM71.12 14.34L71.12 11.89Q70.80 11.84 70.46 11.84L70.46 11.84L70.00 11.84Q67.41 11.84 66.70 12.98L66.70 12.98Q66.49 13.32 66.49 13.70Q66.49 14.07 66.63 14.36Q66.76 14.65 67.08 14.84L67.08 14.84Q67.69 15.19 68.89 15.19Q70.09 15.19 71.13 14.61L71.13 14.61Q71.12 14.48 71.12 14.34L71.12 14.34ZM80.37 0L80.37 16.15Q80.37 17.16 80.41 17.46L80.41 17.46L77.44 17.46L77.44 0L80.37 0ZM86.38 0L86.38 16.15Q86.38 17.16 86.43 17.46L86.43 17.46L83.45 17.46L83.45 0L86.38 0ZM101.16 12.38L101.16 1.82Q101.88 1.88 102.21 1.88L102.21 1.88L103.13 1.88Q103.70 1.88 104.26 1.78L104.26 1.78L104.26 12.28Q104.26 14.86 102.89 16.34L102.89 16.34Q101.59 17.75 99.38 17.75L99.38 17.75Q97.85 17.75 96.82 17.14L96.82 17.14Q96.43 16.92 96.05 16.61L96.05 16.61L96.05 13.22L96.13 13.20Q96.62 13.97 97.28 14.46Q97.95 14.95 98.93 14.95L98.93 14.95Q101.16 14.95 101.16 12.38L101.16 12.38ZM107.12 11.44L107.12 11.44Q107.12 10.07 107.59 8.89Q108.06 7.72 108.91 6.84L108.91 6.84Q110.74 4.98 113.70 4.98L113.70 4.98Q116.19 4.98 117.70 6.63L117.70 6.63Q119.19 8.23 119.19 10.64L119.19 10.64Q119.19 11.57 119.05 11.91L119.05 11.91Q117.88 12.23 114.28 12.23L114.28 12.23L110.16 12.23Q110.46 13.49 111.57 14.19Q112.69 14.88 114.47 14.88L114.47 14.88Q116.33 14.88 117.67 14.21L117.67 14.21Q118.02 14.04 118.20 13.89L118.20 13.89Q118.17 14.38 118.14 14.89L118.14 14.89L118.01 16.72Q117.12 17.33 115.13 17.57L115.13 17.57Q114.54 17.64 114 17.64L114 17.64Q111.02 17.64 109.08 15.90L109.08 15.90Q107.12 14.16 107.12 11.44ZM116.07 9.96L116.07 9.96Q115.59 7.44 113.33 7.44L113.33 7.44Q111.55 7.44 110.63 8.98L110.63 8.98Q110.34 9.45 110.19 10.01L110.19 10.01Q110.47 10.02 110.88 10.03L110.88 10.03L111.75 10.03Q112.18 10.04 112.58 10.04L112.58 10.04L113.25 10.04Q113.85 10.04 114.42 10.03L114.42 10.03L115.38 10.00Q115.77 9.98 116.07 9.96ZM124.50 8.93L124.50 16.15Q124.50 17.16 124.55 17.46L124.55 17.46L121.63 17.46L121.63 5.21L124.50 5.21L124.50 6.12Q125.50 4.98 126.59 4.98Q127.69 4.98 128.32 5.25L128.32 5.25L128.11 8.40L128.06 8.44Q127.65 7.71 126.36 7.71L126.36 7.71Q125.87 7.71 125.36 8.04Q124.85 8.38 124.50 8.93L124.50 8.93ZM133.88 17.64L133.88 17.64Q130.57 17.64 128.89 16.43L128.89 16.43Q128.92 16.08 128.96 15.63L128.96 15.63L129.07 14.79Q129.16 13.96 129.19 13.75Q129.21 13.55 129.22 13.53Q129.23 13.51 129.41 13.72Q129.59 13.92 130.08 14.21Q130.57 14.51 131.21 14.73L131.21 14.73Q132.61 15.21 134.12 15.21L134.12 15.21Q136.15 15.21 136.15 13.86L136.15 13.86Q136.15 13.43 135.76 13.22L135.76 13.22Q135.07 12.87 133.73 12.69Q132.39 12.50 131.53 12.15Q130.68 11.80 130.14 11.31L130.14 11.31Q129.14 10.38 129.14 8.88L129.14 8.88Q129.14 7.05 130.55 6.01L130.55 6.01Q131.94 4.98 134.40 4.98L134.40 4.98Q136.84 4.98 138.56 6.36L138.56 6.36Q138.48 6.67 138.39 6.95L138.39 6.95Q138.12 7.72 137.99 8.06L137.99 8.06L137.72 8.75Q137.70 8.85 137.68 8.85L137.68 8.85Q137.66 8.85 137.50 8.60L137.50 8.60Q136.76 7.75 135.20 7.48L135.20 7.48Q134.72 7.38 134.21 7.38L134.21 7.38Q132.08 7.38 132.08 8.67L132.08 8.67Q132.08 9.12 132.53 9.35L132.53 9.35Q133.36 9.80 134.81 10.01Q136.25 10.22 137.00 10.58Q137.75 10.93 138.21 11.44L138.21 11.44Q139.05 12.35 139.05 13.86L139.05 13.86Q139.05 15.52 137.73 16.55L137.73 16.55Q136.35 17.64 133.88 17.64ZM141.19 11.44L141.19 11.44Q141.19 10.07 141.66 8.89Q142.13 7.72 142.98 6.84L142.98 6.84Q144.81 4.98 147.76 4.98L147.76 4.98Q150.26 4.98 151.77 6.63L151.77 6.63Q153.26 8.23 153.26 10.64L153.26 10.64Q153.26 11.57 153.12 11.91L153.12 11.91Q151.95 12.23 148.35 12.23L148.35 12.23L144.22 12.23Q144.53 13.49 145.64 14.19Q146.75 14.88 148.54 14.88L148.54 14.88Q150.40 14.88 151.73 14.21L151.73 14.21Q152.09 14.04 152.26 13.89L152.26 13.89Q152.24 14.38 152.20 14.89L152.20 14.89L152.07 16.72Q151.18 17.33 149.19 17.57L149.19 17.57Q148.61 17.64 148.07 17.64L148.07 17.64Q145.09 17.64 143.14 15.90L143.14 15.90Q141.19 14.16 141.19 11.44ZM150.14 9.96L150.14 9.96Q149.66 7.44 147.40 7.44L147.40 7.44Q145.62 7.44 144.69 8.98L144.69 8.98Q144.41 9.45 144.26 10.01L144.26 10.01Q144.54 10.02 144.95 10.03L144.95 10.03L145.82 10.03Q146.25 10.04 146.65 10.04L146.65 10.04L147.32 10.04Q147.91 10.04 148.49 10.03L148.49 10.03L149.45 10.00Q149.84 9.98 150.14 9.96ZM157.70 22.59L154.68 21.54L155.45 20.92Q157.20 19.50 158.34 16.73L158.34 16.73L158.88 15.43L154.39 5.21L157.68 5.21L160.49 12.29L163.10 5.21L166.48 5.21Q165.87 6.06 164.99 8.36L164.99 8.36L163.23 12.70Q159.70 21 157.70 22.59L157.70 22.59ZM185.47 2.74L185.47 2.74L185.25 6.19L185.17 6.21Q184.30 4.91 182.21 4.52L182.21 4.52Q181.56 4.39 180.96 4.39Q180.35 4.39 179.92 4.50Q179.50 4.61 179.19 4.80L179.19 4.80Q178.55 5.23 178.55 5.91L178.55 5.91Q178.55 6.80 179.11 7.24L179.11 7.24Q179.81 7.78 181.44 8.00Q183.07 8.21 184.05 8.59Q185.04 8.96 185.67 9.54L185.67 9.54Q186.87 10.62 186.87 12.59L186.87 12.59Q186.87 15.16 184.92 16.56L184.92 16.56Q183.26 17.75 180.73 17.75L180.73 17.75Q178.69 17.75 176.70 16.98L176.70 16.98Q176.04 16.72 175.55 16.38L175.55 16.38L175.68 12.47L175.72 12.43Q177.18 14.94 180.49 14.94L180.49 14.94Q182.85 14.94 183.61 13.80L183.61 13.80Q183.87 13.42 183.87 12.94Q183.87 12.47 183.71 12.16Q183.56 11.85 183.21 11.63L183.21 11.63Q182.53 11.18 180.93 11.03Q179.32 10.88 178.30 10.45Q177.28 10.03 176.67 9.41L176.67 9.41Q175.57 8.29 175.57 6.27L175.57 6.27Q175.57 4.18 177.04 2.89L177.04 2.89Q178.52 1.58 181.05 1.58Q183.57 1.58 185.47 2.74ZM192.93 9.32L192.93 16.15Q192.93 17.16 192.97 17.46L192.97 17.46L190.05 17.46L190.05 0.70L192.93 0.70L192.93 6.13Q194.44 4.98 196.04 4.98L196.04 4.98Q198.01 4.98 199.21 6.28L199.21 6.28Q200.38 7.58 200.38 9.73L200.38 9.73L200.38 14.39Q200.38 16.37 200.44 16.77Q200.50 17.17 200.60 17.29Q200.70 17.40 200.77 17.50L200.77 17.50L200.74 17.54Q199.79 17.46 199.36 17.46L199.36 17.46L198.53 17.46Q198.14 17.46 197.51 17.50L197.51 17.50L197.51 10.71Q197.51 9.09 196.79 8.32L196.79 8.32Q196.25 7.73 195.33 7.73L195.33 7.73Q193.96 7.73 192.93 9.32L192.93 9.32ZM202.84 11.40L202.84 11.40Q202.84 10.11 203.28 8.94Q203.72 7.76 204.54 6.88L204.54 6.88Q206.33 4.98 209.19 4.98L209.19 4.98Q212.04 4.98 213.71 6.77L213.71 6.77Q215.32 8.48 215.32 11.21L215.32 11.21Q215.32 13.95 213.67 15.74L213.67 15.74Q211.92 17.64 209.04 17.64L209.04 17.64Q206.06 17.64 204.38 15.77L204.38 15.77Q202.84 14.07 202.84 11.40ZM205.69 11.33L205.69 11.33Q205.69 12.07 205.93 12.76Q206.18 13.45 206.64 13.95L206.64 13.95Q207.61 15.01 209.19 15.01L209.19 15.01Q210.66 15.01 211.50 13.97L211.50 13.97Q212.32 12.96 212.32 11.34L212.32 11.34Q212.32 9.70 211.48 8.70L211.48 8.70Q210.57 7.62 209.00 7.62L209.00 7.62Q207.41 7.62 206.51 8.77L206.51 8.77Q205.69 9.82 205.69 11.33ZM220.80 17.21L220.80 17.21L220.80 20.66Q220.80 21.67 220.85 21.97L220.85 21.97L217.93 21.97L217.93 5.21L220.80 5.21L220.80 5.98Q222.22 4.98 223.52 4.98Q224.82 4.98 225.83 5.34Q226.84 5.71 227.60 6.47L227.60 6.47Q229.28 8.12 229.28 11.18L229.28 11.18Q229.28 13.21 228.33 14.80L228.33 14.80Q227.52 16.15 226.09 16.96L226.09 16.96Q224.82 17.67 223.35 17.67Q221.87 17.67 220.80 17.21ZM220.80 8.61L220.80 14.26Q221.70 15.01 223.11 15.01L223.11 15.01Q225.43 15.01 226.11 12.77L226.11 12.77Q226.35 12.01 226.35 11.14Q226.35 10.27 226.18 9.74Q226.02 9.22 225.76 8.84Q225.49 8.46 225.16 8.21Q224.84 7.96 224.50 7.80L224.50 7.80Q223.90 7.54 223.27 7.54Q222.63 7.54 221.95 7.83Q221.27 8.12 220.80 8.61L220.80 8.61Z" transform="translate(29.576, 9.27)"></path></svg>